<svg width="38" height="57" viewBox="0 0 38 57" fill="none" xmlns="http://www.w3.org/2000/svg">
<path d="M30.5292 32.5292C30.52 31.2403 30.5619 29.9992 30.4884 28.7648C30.4055 27.3725 29.5659 26.6223 28.1303 26.5327C27.8004 26.5121 27.4679 26.5296 27.0982 26.5296C27.0982 25.3548 27.0982 24.2131 27.0982 23.0189C28.9033 22.9949 30.713 22.8812 32.3815 23.7031C34.0185 24.5092 34.8939 25.8946 34.9711 27.6222C35.0924 30.3312 35.0584 33.047 35.0782 35.76C35.0881 37.1076 35.5477 37.5724 36.9213 37.5718C37.2166 37.5718 37.512 37.5718 37.8464 37.5718C37.8464 38.7606 37.8464 39.9222 37.8464 41.1709C37.5028 41.1709 37.1452 41.1694 36.7875 41.171C35.6068 41.1769 35.0854 41.6723 35.0833 42.8088C35.0785 45.1842 35.1155 47.5602 35.0617 49.9344C35.0423 50.7863 34.921 51.6682 34.6533 52.4761C33.9862 54.4883 32.3514 55.3949 30.3073 55.6248C29.2601 55.7426 28.187 55.6455 27.0938 55.6455C27.0938 54.548 27.0938 53.402 27.0938 52.1958C27.4918 52.1958 27.8718 52.2125 28.2499 52.1927C29.4985 52.1276 30.3677 51.3736 30.4692 50.1671C30.55 49.2059 30.5176 48.2356 30.5283 47.2693C30.5477 45.5226 30.5236 43.7744 30.5907 42.0294C30.6433 40.6618 31.1951 39.9588 32.4573 39.4015C32.4216 39.3629 32.3947 39.3076 32.3518 39.2912C31.1126 38.8191 30.6352 37.8442 30.5839 36.6494C30.5256 35.2946 30.544 33.9366 30.5292 32.5292Z" fill="#FDFDFD"/>
<path d="M10.7279 54.1043C10.7279 54.7618 10.7279 55.3684 10.7279 56.008C9.25349 56.0328 7.8239 56.0995 6.42624 55.712C4.36261 55.1397 2.98706 53.5671 2.86747 51.4173C2.75171 49.3368 2.78948 47.2481 2.76476 45.1627C2.7557 44.3995 2.7775 43.6353 2.7554 42.8724C2.73068 42.0132 2.18291 41.494 1.2974 41.4652C0.87906 41.4514 0.459949 41.4628 0 41.4628C0 40.2569 0 39.0828 0 37.8586C0.273575 37.8586 0.53103 37.8579 0.788331 37.8588C2.32293 37.8643 2.76307 37.4449 2.76338 35.9738C2.76384 33.7003 2.72178 31.4257 2.78395 29.1538C2.80913 28.2353 2.92811 27.2776 3.23761 26.4165C3.96223 24.3999 5.67307 23.5763 7.72979 23.3724C8.69636 23.2763 9.68135 23.3559 10.6931 23.3559C10.6931 24.4637 10.6931 25.6061 10.6931 26.7628C10.2053 26.8059 9.70054 26.8123 9.21173 26.9013C8.11727 27.1006 7.45483 27.8009 7.36978 28.8864C7.30638 29.6964 7.32065 30.5128 7.31728 31.3266C7.31098 32.9383 7.32802 34.5502 7.31375 36.1617C7.30039 37.6509 7.04247 39.0267 5.25011 39.6591C7.00824 40.2752 7.29885 41.6152 7.31067 43.0808C7.32833 45.2694 7.31375 47.4581 7.31728 49.6467C7.31789 49.9174 7.33294 50.1895 7.36533 50.4583C7.50995 51.6551 8.3494 52.4161 9.59814 52.4794C9.94617 52.4972 10.296 52.4822 10.7279 52.4822C10.7279 53.0186 10.7279 53.5361 10.7279 54.1043Z" fill="#FDFDFD"/>
<path d="M12.8233 5.82193C13.5083 4.20958 14.6442 2.92991 16.0578 1.89913C16.9036 1.28239 17.7943 0.641812 18.7716 0.294356C20.5918 -0.35277 22.2825 0.0745166 23.581 1.50305C24.8432 2.89187 25.0342 4.49366 24.239 6.21066C23.7124 6.21116 24.1416 6.49161 24.0495 6.60287C24.0495 6.60287 24.0543 6.63236 24.0084 6.63555C23.8717 6.59713 23.7661 6.50273 23.693 6.52236C23.1989 6.65531 22.7114 6.81158 22.2222 6.96209C22.0765 7.00695 21.8692 7.14238 21.7977 7.09214C21.1404 6.63095 20.4035 6.88066 19.7122 6.86938C17.4648 6.83268 15.2164 6.85564 12.992 6.85564C12.9183 6.59295 12.8382 6.30706 12.758 6.02119C12.758 6.02119 12.7531 6.01574 12.7887 6.01744C12.8629 5.99621 12.9011 5.97326 12.9394 5.95032C12.9008 5.90752 12.862 5.86472 12.8233 5.82193Z" fill="#694DF8"/>
<path d="M12.7252 6.0415C12.8342 6.30697 12.9143 6.59286 12.988 6.85555C15.2124 6.85555 17.4608 6.83258 19.7082 6.86929C20.3995 6.88056 21.1364 6.63086 21.7937 7.09205C21.8652 7.14229 22.0725 7.00686 22.2182 6.962C22.7074 6.81149 23.1949 6.65522 23.689 6.52226C23.7621 6.50264 23.8677 6.59704 23.9927 6.64529C23.9106 6.81583 23.7939 6.97973 23.6381 7.14585C23.5919 7.14294 23.5851 7.13785 23.5782 7.13275C23.5896 7.14597 23.6008 7.15917 23.612 7.17239C23.0697 7.96576 22.2441 8.33092 21.3445 8.58537C20.6467 8.78271 19.9497 8.98238 19.1838 9.19101C19.0724 9.23625 19.0295 9.27144 18.9865 9.30666C18.7457 9.56002 18.5051 9.81338 18.2232 10.1079C18.1604 10.1727 18.1494 10.2004 18.1495 10.2321C18.1495 10.2321 18.1491 10.2791 18.1152 10.3234C18.0726 10.431 18.0642 10.4942 18.0557 10.5576C18.0511 10.6266 18.0464 10.6955 18.0088 10.822C18.0255 10.9985 18.0751 11.1175 18.1248 11.2365C18.1248 11.2365 18.152 11.2679 18.1422 11.3279C17.9229 11.4729 17.7137 11.6307 17.5043 11.631C16.0784 11.632 14.6523 11.6016 13.2264 11.5772C12.914 11.5719 12.6019 11.5496 12.2896 11.5351C12.2803 11.4907 12.2709 11.4462 12.2892 11.3438C12.27 11.1672 12.223 11.0483 12.176 10.9296C12.1693 10.9131 12.1624 10.8966 12.1765 10.8376C12.1604 10.737 12.1234 10.6789 12.0864 10.6207C11.8229 9.04242 11.9878 7.51795 12.7252 6.0415ZM22.8097 7.07674C22.8464 7.07723 22.8834 7.07804 22.9199 7.07634L22.9205 7.03569C22.884 7.03284 22.8471 7.03256 22.8097 7.07674Z" fill="#5D3FE8"/>
<path d="M12.2891 11.5725C12.6016 11.5495 12.9137 11.5718 13.2262 11.5771C14.6521 11.6016 16.0781 11.6319 17.504 11.6309C17.7134 11.6307 17.9227 11.4729 18.1442 11.3484C18.9804 11.9769 19.8044 12.6452 20.6492 13.3754C20.7369 13.4825 20.8038 13.5276 20.8706 13.5727C21.0344 13.7293 21.1984 13.8858 21.3818 14.1032C21.4888 14.2431 21.5765 14.3223 21.6643 14.4013C21.6749 14.4155 21.6853 14.4295 21.7071 14.5033C21.8252 14.7082 21.9322 14.8535 22.0392 14.9988C22.0392 14.9988 22.0575 15.0293 22.0478 15.085C22.0338 15.2818 21.9862 15.4388 22.0338 15.5609C22.1471 15.852 22.3521 16.1147 22.4339 16.4113C22.5323 16.7684 22.3891 16.9717 21.9405 16.9502C21.2286 16.9164 20.514 16.9413 19.8558 16.9413C19.6767 16.8171 19.5379 16.6763 19.3681 16.6117C18.8737 16.4228 18.3688 16.2596 17.8648 16.0954C17.1767 15.8711 16.4859 15.655 15.7963 15.4355C15.7562 15.4254 15.7163 15.4152 15.6407 15.3581C15.4012 15.2095 15.1972 15.108 14.9933 15.0065C14.9933 15.0065 14.9867 15.0063 14.9754 14.9816C14.9422 14.9298 14.9137 14.9156 14.8782 14.914C14.8612 14.9104 14.844 14.9068 14.7984 14.8581C14.5649 14.6743 14.3598 14.5356 14.1545 14.3968C14.0922 14.3415 14.0297 14.2863 13.9495 14.1696C13.7371 13.9291 13.5421 13.7499 13.3471 13.5708C13.3299 13.5336 13.3127 13.4964 13.2879 13.403C13.2532 13.326 13.226 13.3051 13.199 13.2844C13.199 13.2844 13.1942 13.2826 13.1844 13.2572C13.1545 13.2027 13.1271 13.184 13.092 13.176C13.092 13.176 13.0705 13.1461 13.0688 13.0999C13.0412 13.0283 13.0152 13.0029 12.9893 12.9775C12.7558 12.5216 12.5223 12.0658 12.2891 11.5725Z" fill="#5331D7"/>
<path d="M15.8203 15.466C16.4927 15.6552 17.1836 15.8713 17.8717 16.0956C18.3757 16.2598 18.8806 16.423 19.3749 16.6119C19.5447 16.6765 19.6835 16.8173 19.8627 16.9415C20.5208 16.9415 21.2355 16.9166 21.9473 16.9504C22.3959 16.9719 22.5392 16.7686 22.4408 16.4115C22.3589 16.1149 22.154 15.8522 22.0407 15.5611C21.9931 15.439 22.0407 15.282 22.0543 15.1028C22.8496 15.8666 22.9977 18.2423 21.6709 19.5193C21.105 20.0637 20.4491 20.5257 19.805 20.9867C19.0988 21.4919 18.6169 22.1151 18.4778 22.9681C18.4592 23.081 18.413 23.1894 18.3681 23.3377C17.9303 23.2313 17.9074 22.8942 17.8695 22.5911C17.7564 21.6889 18.0591 20.8957 18.5734 20.1592C18.9254 19.6547 19.2831 19.1522 19.6006 18.6274C20.0997 17.8025 19.9213 17.1425 19.0317 16.7392C18.3075 16.4106 17.5295 16.195 16.7812 15.915C16.459 15.7944 16.1516 15.6371 15.8203 15.466Z" fill="#411DB9"/>
</svg>
