<svg xmlns="http://www.w3.org/2000/svg" xml:space="preserve" viewBox="0 0 128 128">
  <linearGradient id="a" x1="14.704" x2="110.985" y1="46.27" y2="92.024" gradientTransform="matrix(1 0 0 -1 0 130)" gradientUnits="userSpaceOnUse">
    <stop offset="0" stop-color="#694DF8"/> <!-- purple-custom -->
    <stop offset=".5" stop-color="#6F60C0"/> <!-- purple-gray-custom -->
    <stop offset="1" stop-color="#A78BFA"/> <!-- galaxy-accent -->
  </linearGradient>
  <path fill="url(#a)" d="m124.5 21.3-4.4 68.6L78.3 0l46.2 21.3zm-29 88.7L64 128l-31.5-18 6.4-15.5h50.3l6.3 15.5zM64 34.1l16.5 40.2h-33L64 34.1zM7.9 89.9 3.5 21.3 49.7 0 7.9 89.9z"/>
  <linearGradient id="b" x1="28.733" x2="91.742" y1="117.071" y2="45.195" gradientTransform="matrix(1 0 0 -1 0 130)" gradientUnits="userSpaceOnUse">
    <stop offset="0" stop-color="#A78BFA"/> <!-- galaxy-accent -->
    <stop offset="1" stop-color="#6F60C0" stop-opacity="0"/> <!-- purple-gray-custom -->
  </linearGradient>
  <path fill="url(#b)" d="m124.5 21.3-4.4 68.6L78.3 0l46.2 21.3zm-29 88.7L64 128l-31.5-18 6.4-15.5h50.3l6.3 15.5zM64 34.1l16.5 40.2h-33L64 34.1zM7.9 89.9 3.5 21.3 49.7 0 7.9 89.9z"/>
</svg>
